HIERARCHY
ROOT Hips
{
  OFFSET 0.849866 78.6569 -0.536788
  CHANNELS 6 Xposition Yposition Zposition Zrotation Xrotation Yrotation
  JOINT Bip01_Pelvis
  {
    OFFSET 0 0 0
    CHANNELS 6 Xposition Yposition Zposition Zrotation Xrotation Yrotation
    JOINT BN_Tail_01
    {
      OFFSET -5.52397 -0.332285 0
      CHANNELS 6 Xposition Yposition Zposition Zrotation Xrotation Yrotation
      JOINT BN_Tail_02
      {
        OFFSET 6.48885 -2.032e-005 0
        CHANNELS 6 Xposition Yposition Zposition Zrotation Xrotation Yrotation
        JOINT BN_Tail_03
        {
          OFFSET 7.08759 1.016e-005 -0.00261112
          CHANNELS 6 Xposition Yposition Zposition Zrotation Xrotation Yrotation
          End Site
          {
            OFFSET 0 0 0
          }
        }
      }
    }
    JOINT Bip01_Spine
    {
      OFFSET 4.02227 0.398968 0
      CHANNELS 6 Xposition Yposition Zposition Zrotation Xrotation Yrotation
      JOINT BN_UpperArm_R_01
      {
        OFFSET 4.84413 -3.22857 -3.65581
        CHANNELS 6 Xposition Yposition Zposition Zrotation Xrotation Yrotation
        JOINT BN_Forearm_R_01
        {
          OFFSET 8.51614 0 0
          CHANNELS 6 Xposition Yposition Zposition Zrotation Xrotation Yrotation
          JOINT BN_hand_R_01
          {
            OFFSET 10.1924 0 0
            CHANNELS 6 Xposition Yposition Zposition Zrotation Xrotation Yrotation
            JOINT BN_Finger_R_02
            {
              OFFSET 14.5949 -1.43855 0.585079
              CHANNELS 6 Xposition Yposition Zposition Zrotation Xrotation Yrotation
              End Site
              {
                OFFSET 0 0 0
              }
            }
            JOINT BN_Finger_R_01
            {
              OFFSET 14.4623 0 0
              CHANNELS 6 Xposition Yposition Zposition Zrotation Xrotation Yrotation
              End Site
              {
                OFFSET 0 0 0
              }
            }
          }
        }
      }
      JOINT BN_UpperArm_L_01
      {
        OFFSET 4.84412 -3.22858 3.65557
        CHANNELS 6 Xposition Yposition Zposition Zrotation Xrotation Yrotation
        JOINT BN_Forearm_L_01
        {
          OFFSET 8.51611 0 0
          CHANNELS 6 Xposition Yposition Zposition Zrotation Xrotation Yrotation
          JOINT BN_hand_L_01
          {
            OFFSET 10.1924 0 0
            CHANNELS 6 Xposition Yposition Zposition Zrotation Xrotation Yrotation
            JOINT BN_Finger_L_01
            {
              OFFSET 14.4623 0 0
              CHANNELS 6 Xposition Yposition Zposition Zrotation Xrotation Yrotation
              End Site
              {
                OFFSET 0 0 0
              }
            }
            JOINT BN_Finger_L_02
            {
              OFFSET 14.5949 1.43855 0.585071
              CHANNELS 6 Xposition Yposition Zposition Zrotation Xrotation Yrotation
              End Site
              {
                OFFSET 0 0 0
              }
            }
          }
        }
      }
      JOINT Bip01_R_Thigh
      {
        OFFSET -4.03411 -0.254132 -3.45377
        CHANNELS 6 Xposition Yposition Zposition Zrotation Xrotation Yrotation
        JOINT Bip01_R_Calf
        {
          OFFSET 3.92618 0 0
          CHANNELS 6 Xposition Yposition Zposition Zrotation Xrotation Yrotation
          JOINT Bip01_R_HorseLink
          {
            OFFSET 6.12319 0 0
            CHANNELS 6 Xposition Yposition Zposition Zrotation Xrotation Yrotation
            JOINT Bip01_R_Foot
            {
              OFFSET 9.94776 0 0
              CHANNELS 6 Xposition Yposition Zposition Zrotation Xrotation Yrotation
              JOINT Bip01_R_Toe3
              {
                OFFSET 0.881252 -0.110953 0.0158496
                CHANNELS 6 Xposition Yposition Zposition Zrotation Xrotation Yrotation
                JOINT Bip01_R_Toe31
                {
                  OFFSET 2.32137 0 0
                  CHANNELS 6 Xposition Yposition Zposition Zrotation Xrotation Yrotation
                  JOINT Bip01_R_Toe32
                  {
                    OFFSET 1.63293 0 0
                    CHANNELS 6 Xposition Yposition Zposition Zrotation Xrotation Yrotation
                    JOINT Bip01_R_Toe3Nub
                    {
                      OFFSET 1.72131 0 0
                      CHANNELS 6 Xposition Yposition Zposition Zrotation Xrotation Yrotation
                      End Site
                      {
                        OFFSET 0 0 0
                      }
                    }
                  }
                }
              }
              JOINT Bip01_R_Toe2
              {
                OFFSET 0.994751 0.967285 -1.09428
                CHANNELS 6 Xposition Yposition Zposition Zrotation Xrotation Yrotation
                JOINT Bip01_R_Toe21
                {
                  OFFSET 2.20201 0 0
                  CHANNELS 6 Xposition Yposition Zposition Zrotation Xrotation Yrotation
                  JOINT Bip01_R_Toe22
                  {
                    OFFSET 1.84925 0 0
                    CHANNELS 6 Xposition Yposition Zposition Zrotation Xrotation Yrotation
                    JOINT Bip01_R_Toe2Nub
                    {
                      OFFSET 1.70976 0 0
                      CHANNELS 6 Xposition Yposition Zposition Zrotation Xrotation Yrotation
                      End Site
                      {
                        OFFSET 0 0 0
                      }
                    }
                  }
                }
              }
              JOINT Bip01_R_Toe1
              {
                OFFSET 1.3748 1.34027 -0.0712419
                CHANNELS 6 Xposition Yposition Zposition Zrotation Xrotation Yrotation
                JOINT Bip01_R_Toe11
                {
                  OFFSET 2.26122 0 0
                  CHANNELS 6 Xposition Yposition Zposition Zrotation Xrotation Yrotation
                  JOINT Bip01_R_Toe12
                  {
                    OFFSET 2.22215 0 0
                    CHANNELS 6 Xposition Yposition Zposition Zrotation Xrotation Yrotation
                    JOINT Bip01_R_Toe1Nub
                    {
                      OFFSET 1.61867 0 0
                      CHANNELS 6 Xposition Yposition Zposition Zrotation Xrotation Yrotation
                      End Site
                      {
                        OFFSET 0 0 0
                      }
                    }
                  }
                }
              }
              JOINT Bip01_R_Toe0
              {
                OFFSET 1.40695 0.687986 0.883783
                CHANNELS 6 Xposition Yposition Zposition Zrotation Xrotation Yrotation
                JOINT Bip01_R_Toe01
                {
                  OFFSET 2.26828 0 0
                  CHANNELS 6 Xposition Yposition Zposition Zrotation Xrotation Yrotation
                  JOINT Bip01_R_Toe02
                  {
                    OFFSET 2.09769 0 0
                    CHANNELS 6 Xposition Yposition Zposition Zrotation Xrotation Yrotation
                    JOINT Bip01_R_Toe0Nub
                    {
                      OFFSET 1.53753 0 0
                      CHANNELS 6 Xposition Yposition Zposition Zrotation Xrotation Yrotation
                      End Site
                      {
                        OFFSET 0 0 0
                      }
                    }
                  }
                }
              }
            }
          }
        }
      }
      JOINT Bip01_L_Thigh
      {
        OFFSET -4.03411 -0.254147 3.45377
        CHANNELS 6 Xposition Yposition Zposition Zrotation Xrotation Yrotation
        JOINT Bip01_L_Calf
        {
          OFFSET 3.92616 0 0
          CHANNELS 6 Xposition Yposition Zposition Zrotation Xrotation Yrotation
          JOINT Bip01_L_HorseLink
          {
            OFFSET 6.1232 0 0
            CHANNELS 6 Xposition Yposition Zposition Zrotation Xrotation Yrotation
            JOINT Bip01_L_Foot
            {
              OFFSET 9.94775 0 0
              CHANNELS 6 Xposition Yposition Zposition Zrotation Xrotation Yrotation
              JOINT Bip01_L_Toe3
              {
                OFFSET 0.881246 -0.110986 -0.0157582
                CHANNELS 6 Xposition Yposition Zposition Zrotation Xrotation Yrotation
                JOINT Bip01_L_Toe31
                {
                  OFFSET 2.32136 0 0
                  CHANNELS 6 Xposition Yposition Zposition Zrotation Xrotation Yrotation
                  JOINT Bip01_L_Toe32
                  {
                    OFFSET 1.63293 0 0
                    CHANNELS 6 Xposition Yposition Zposition Zrotation Xrotation Yrotation
                    JOINT Bip01_L_Toe3Nub
                    {
                      OFFSET 1.7213 0 0
                      CHANNELS 6 Xposition Yposition Zposition Zrotation Xrotation Yrotation
                      End Site
                      {
                        OFFSET 0 0 0
                      }
                    }
                  }
                }
              }
              JOINT Bip01_L_Toe2
              {
                OFFSET 0.994649 0.967162 1.09447
                CHANNELS 6 Xposition Yposition Zposition Zrotation Xrotation Yrotation
                JOINT Bip01_L_Toe21
                {
                  OFFSET 2.202 0 0
                  CHANNELS 6 Xposition Yposition Zposition Zrotation Xrotation Yrotation
                  JOINT Bip01_L_Toe22
                  {
                    OFFSET 1.84926 0 0
                    CHANNELS 6 Xposition Yposition Zposition Zrotation Xrotation Yrotation
                    JOINT Bip01_L_Toe2Nub
                    {
                      OFFSET 1.70976 0 0
                      CHANNELS 6 Xposition Yposition Zposition Zrotation Xrotation Yrotation
                      End Site
                      {
                        OFFSET 0 0 0
                      }
                    }
                  }
                }
              }
              JOINT Bip01_L_Toe1
              {
                OFFSET 1.37483 1.34021 0.0715086
                CHANNELS 6 Xposition Yposition Zposition Zrotation Xrotation Yrotation
                JOINT Bip01_L_Toe11
                {
                  OFFSET 2.26124 0 0
                  CHANNELS 6 Xposition Yposition Zposition Zrotation Xrotation Yrotation
                  JOINT Bip01_L_Toe12
                  {
                    OFFSET 2.22214 0 0
                    CHANNELS 6 Xposition Yposition Zposition Zrotation Xrotation Yrotation
                    JOINT Bip01_L_Toe1Nub
                    {
                      OFFSET 1.61867 0 0
                      CHANNELS 6 Xposition Yposition Zposition Zrotation Xrotation Yrotation
                      End Site
                      {
                        OFFSET 0 0 0
                      }
                    }
                  }
                }
              }
              JOINT Bip01_L_Toe0
              {
                OFFSET 1.40707 0.688009 -0.883564
                CHANNELS 6 Xposition Yposition Zposition Zrotation Xrotation Yrotation
                JOINT Bip01_L_Toe01
                {
                  OFFSET 2.26828 0 0
                  CHANNELS 6 Xposition Yposition Zposition Zrotation Xrotation Yrotation
                  JOINT Bip01_L_Toe02
                  {
                    OFFSET 2.0977 0 0
                    CHANNELS 6 Xposition Yposition Zposition Zrotation Xrotation Yrotation
                    JOINT Bip01_L_Toe0Nub
                    {
                      OFFSET 1.53752 0 0
                      CHANNELS 6 Xposition Yposition Zposition Zrotation Xrotation Yrotation
                      End Site
                      {
                        OFFSET 0 0 0
                      }
                    }
                  }
                }
              }
            }
          }
        }
      }
      JOINT Bip01_Spine1
      {
        OFFSET 4.90674 -0.00437896 0
        CHANNELS 6 Xposition Yposition Zposition Zrotation Xrotation Yrotation
        JOINT Bip01_Neck
        {
          OFFSET 5.56447 -1.28357 0
          CHANNELS 6 Xposition Yposition Zposition Zrotation Xrotation Yrotation
          JOINT Bip01_Neck1
          {
            OFFSET 2.79308 -0.00219964 0
            CHANNELS 6 Xposition Yposition Zposition Zrotation Xrotation Yrotation
            JOINT Bip01_Head
            {
              OFFSET 2.79272 0 0
              CHANNELS 6 Xposition Yposition Zposition Zrotation Xrotation Yrotation
              JOINT BN_Mouth_01
              {
                OFFSET 4.19089 0.0665938 0
                CHANNELS 6 Xposition Yposition Zposition Zrotation Xrotation Yrotation
                End Site
                {
                  OFFSET 0 0 0
                }
              }
              JOINT Bip01_HeadNub
              {
                OFFSET 6.95118 0 0
                CHANNELS 6 Xposition Yposition Zposition Zrotation Xrotation Yrotation
                End Site
                {
                  OFFSET 0 0 0
                }
              }
            }
          }
        }
      }
    }
  }
}
MOTION
Frames:	3
Frame Time:	0.0333333
0.849866 87.1352 0 175.059 -90 -90 0 0 0 -89.9964 12.1787 -89.9965 -5.52397 -0.332283 -8.67362e-019 -24.3942 0.00624085 179.97 6.48883 0 -0.00308864 -0.811347 2.04563e-010 7.37411e-010 7.08761 7.6294e-006 -0.00338582 15.8824 0.010309 0.023279 3.9586 0.817231 0 17.6641 -2.08441e-010 -7.96303e-016 4.84413 -3.22853 -3.65581 -83.068 -13.521 37.8433 8.51612 1.90735e-006 -7.10543e-015 36.3245 -0.000681174 -25.3968 10.1924 -7.10544e-015 -1.90735e-006 -30.9483 0.690137 -19.1549 14.5949 -1.43856 0.585085 -48.299 -1.49205 18.0223 14.4623 9.53677e-007 2.86102e-006 -2.99747 -0.000244172 16.6477 4.84413 -3.22854 3.65557 97.9499 -13.3783 -142.159 8.51613 -1.90735e-006 -3.8147e-006 -36.3245 0.00068273 -25.3968 10.1924 -3.8147e-006 -1.90735e-006 30.9483 -0.690142 -19.1549 14.4623 -4.76838e-006 1.77636e-015 2.99746 0.000242666 16.6477 14.5949 1.43855 0.585067 48.299 1.49205 18.0223 -4.01997 0.422653 -3.45377 -104.133 3.39187 -174.601 3.92618 -4.76838e-007 0 -78.1353 2.19311e-006 9.7761e-006 6.1232 0 4.76837e-007 111.594 -3.29655e-006 -9.44354e-006 9.94776 3.81472e-006 -8.88179e-016 -74.2772 17.312 5.27452 0.881233 -0.111043 0.0157101 168.325 -4.46188 -178.996 2.32136 -3.81473e-006 -0.00069809 44.4236 0.0163222 0.0122225 1.63293 7.6295e-006 0 -102.598 -1.30327e-005 9.2431e-006 1.72129 3.55279e-015 -1.77636e-015 -2.09249e-007 3.39897e-007 -1.05492e-007 0.994616 0.967012 -1.09461 26.5396 -25.6137 10.3145 2.20203 9.53685e-007 1.90735e-006 40.0408 0.0119869 0.0328478 1.84924 3.81476e-006 0.000741958 -35.3034 0.0052848 -0.0166662 1.70976 4.76846e-007 -1.77636e-015 -1.37004e-007 1.82898e-006 -2.45187e-007 1.37489 1.34013 -0.0717066 31.7106 2.29249 -1.41477 2.26123 -4.76843e-007 4.76837e-007 31.1828 7.51748e-006 -3.96239e-006 2.22214 1.90737e-006 -8.88179e-016 -38.511 0.00099033 0.0077542 1.61867 1.90738e-006 -4.76837e-007 5.14991e-007 1.11369e-005 1.05544e-007 1.40716 0.687999 0.883418 41.5207 24.9845 -20.5047 2.26829 9.53686e-007 3.8147e-006 29.1436 0.00865786 0.0194323 2.09769 3.81475e-006 0 -61.018 -0.00300126 -0.00176263 1.53753 1.90739e-006 3.55271e-015 7.33681e-007 4.6044e-006 9.7209e-008 -4.01996 0.422791 3.45377 -131.019 -0.425032 176.965 3.92615 3.8147e-006 -2.98023e-008 -92.9983 1.7309e-005 8.14389e-007 6.12318 -1.52588e-005 -2.68221e-007 100.409 -1.84063e-006 -9.88962e-006 9.94774 0 -4.47035e-008 -70.2146 -14.6987 -5.09303 0.881234 -0.110951 -0.0158548 155.896 4.58118 179.941 2.32137 -1.4211e-014 0 44.45 0.00793435 0.0194254 1.63293 0 -4.76837e-007 -43.5335 0.00388484 -0.00974745 1.7213 -3.81477e-006 -4.76837e-007 179.961 -0.00561136 0.00135229 0.994747 0.967282 1.09428 35.8042 23.7813 -14.1931 2.20201 0 -9.53674e-007 40.0409 -3.47592e-006 2.96164e-006 1.84923 -3.81475e-006 1.77636e-015 -72.6411 -2.35696e-007 2.48098e-006 1.70977 -3.81478e-006 0 179.961 -0.000192494 -0.00263496 1.37479 1.34028 0.0712419 40.3258 -2.0544 1.74185 2.26123 0 8.88178e-016 31.1828 -4.06423e-006 1.03492e-006 2.22213 3.81475e-006 8.88178e-016 -38.5073 -1.75313e-005 -1.06698e-006 1.61866 8.88194e-016 0 -179.961 -0.00156655 -0.00208712 1.40693 0.687998 -0.883786 50.2045 -21.7173 23.9519 2.26828 -1.90737e-006 3.55271e-015 29.1653 8.35713e-006 4.73395e-006 2.09769 -3.81475e-006 -1.90735e-006 -61.0221 -1.81289e-005 -1.18876e-005 1.53754 -1.7764e-015 -1.90735e-006 -179.96 -0.000620667 -0.00180086 4.90809 -0.00402069 0 22.6021 -4.99734 0.00335008 5.56491 -1.2835 -4.76837e-007 15.2372 -3.47161 4.6201 2.793 -0.00221253 -9.53674e-007 7.28239 0.917755 -0.391306 2.79274 -1.14441e-005 1.90735e-006 60.4875 -22.0618 11.8907 4.19086 0.0665913 0 -175.675 -0.0374146 -179.999 6.95114 -1.90735e-006 0 -3.92554e-007 1.45964e-006 8.31059e-007 
0.849866 87.2063 -2.97248e-009 174.97 -90 -90 0 0 0 -89.9964 12.1787 -89.9965 -5.52397 -0.332283 -3.38271e-017 -25.0145 0.00656128 179.97 6.48883 0 -0.00308864 -0.710613 2.05859e-010 7.3705e-010 7.08761 7.6294e-006 -0.00338582 13.7037 0.00940054 0.0235884 3.9586 0.817231 8.1532e-017 17.7592 -2.08418e-010 3.34406e-013 4.84413 -3.22853 -3.65581 -83.1298 -13.2818 38.2085 8.51612 1.90735e-006 -7.10543e-015 36.4355 0.182567 -25.2492 10.1924 0 -1.90735e-006 -30.8806 0.805026 -20.769 14.5949 -1.43856 0.585085 -46.1002 -1.76724 13.3323 14.4623 9.53677e-007 2.86102e-006 -1.14069 2.80677 13.0903 4.84413 -3.22854 3.65557 97.9238 -13.1913 -141.799 8.51613 -1.90735e-006 -3.8147e-006 -36.3487 0.000939897 -25.251 10.1924 -3.8147e-006 -1.90735e-006 30.5008 -1.80425 -20.8171 14.4623 -4.76838e-006 0 1.16591 -0.553363 13.0369 14.5949 1.43855 0.585067 46.7487 1.76604 13.2996 -4.01926 0.429032 -3.45377 -104.743 3.37222 -174.529 3.92618 -4.76838e-007 -1.77636e-015 -78.2457 2.17281e-006 9.78019e-006 6.1232 4.26327e-014 4.76837e-007 110.873 -3.17956e-006 -9.4901e-006 9.94776 3.81472e-006 0 -74.1419 17.3339 5.32863 0.881233 -0.111043 0.0157101 168.336 -4.45233 -178.991 2.32136 -3.81473e-006 -0.00069809 44.2642 0.0163604 0.012342 1.63293 7.6295e-006 -5.32907e-015 -102.597 -0.000429578 -8.38641e-005 1.72129 7.10558e-015 1.77636e-015 -2.09249e-007 3.39897e-007 -1.05492e-007 0.994616 0.967012 -1.09461 26.6343 -25.598 10.3557 2.20203 9.53685e-007 1.90735e-006 39.8609 -0.00957294 0.00718806 1.84924 3.81476e-006 0.000741958 -35.2985 0.00204702 -0.0120956 1.70976 4.76846e-007 3.55271e-015 -1.37004e-007 1.82898e-006 -2.45187e-007 1.37489 1.34013 -0.0717066 31.766 2.2978 -1.4062 2.26123 -4.76843e-007 4.76837e-007 30.9635 -0.025753 -0.0429381 2.22214 1.90737e-006 -1.77636e-015 -38.4942 0.00992285 -0.00347521 1.61867 1.90738e-006 -4.76837e-007 5.14991e-007 1.11369e-005 1.05544e-007 1.40716 0.687999 0.883418 41.5767 24.9654 -20.5285 2.26829 9.53686e-007 3.8147e-006 28.9898 -0.000122414 0.00370318 2.09769 3.81475e-006 3.55271e-015 -61.0176 -0.00284441 -0.00184951 1.53753 1.90739e-006 0 7.33681e-007 4.6044e-006 9.7209e-008 -4.01926 0.429121 3.45377 -131.27 -0.423999 177.012 3.92615 3.8147e-006 -2.98023e-008 -93.1264 1.73071e-005 8.53094e-007 6.12318 -1.52588e-005 -2.68221e-007 100.504 -1.85706e-006 -9.88664e-006 9.94774 0 -4.47035e-008 -70.7479 -14.6223 -5.22386 0.881234 -0.110951 -0.0158548 155.961 4.56774 179.96 2.32137 -2.13165e-014 1.77636e-015 44.3517 -0.0258573 -0.0150918 1.63293 1.42111e-014 -4.76837e-007 -43.5331 0.0030568 -0.00887597 1.7213 -3.81477e-006 -4.76837e-007 179.961 -0.00561136 0.00135229 0.994747 0.967282 1.09428 35.8042 23.7813 -14.1931 2.20201 -2.66457e-015 -9.53674e-007 39.895 -0.00210074 -0.00250576 1.84923 -3.81475e-006 1.06581e-014 -72.6411 -0.000208936 6.77238e-005 1.70977 -3.81478e-006 -5.32907e-015 179.961 -0.000192494 -0.00263496 1.37479 1.34028 0.0712419 40.3258 -2.0544 1.74185 2.26123 -5.32913e-015 1.77636e-015 31.0707 9.4853e-007 9.32547e-006 2.22213 3.81475e-006 -8.88178e-016 -38.5063 -0.00153357 0.00190438 1.61866 -9.77013e-015 -8.88178e-016 -179.961 -0.00156655 -0.00208712 1.40693 0.687998 -0.883786 50.2045 -21.7173 23.9519 2.26828 -1.90737e-006 3.55271e-015 29.0799 8.34286e-006 4.74446e-006 2.09769 -3.81475e-006 -1.90735e-006 -61.0227 -0.00018113 7.84056e-005 1.53754 0 -1.90735e-006 -179.96 -0.000620667 -0.00180086 4.90809 -0.00402069 1.73472e-018 22.6469 -4.99801 0.00565041 5.56491 -1.2835 -4.76837e-007 15.6304 -3.49839 4.57251 2.793 -0.00221253 -9.53674e-007 8.29763 0.913464 -0.388394 2.79274 -1.14441e-005 1.90735e-006 59.0087 -22.2248 11.765 4.19086 0.0665913 4.772e-011 -176.194 -0.0441437 -179.999 6.95114 -1.90735e-006 -3.55271e-015 -3.92554e-007 1.45964e-006 8.31059e-007 
0.849866 87.296 -6.71771e-009 174.909 -90 -90 0 0 0 -89.9965 12.1786 -89.9964 -5.52397 -0.332283 -4.25007e-017 -25.6871 0.00691223 179.97 6.48883 1.42109e-014 -0.00308864 -0.426652 2.09509e-010 7.36021e-010 7.08761 7.6294e-006 -0.00338582 11.5673 0.00849796 0.023841 3.9586 0.817231 1.07553e-016 17.8524 -2.08411e-010 6.81508e-013 4.84413 -3.22853 -3.65581 -83.3075 -12.6286 39.2191 8.51612 1.90735e-006 -7.10543e-015 36.6059 0.398998 -24.8406 10.1924 4.47643e-013 -1.90735e-006 -30.7259 1.12635 -22.2873 14.5949 -1.43856 0.585085 -43.6562 -2.52741 7.95091 14.4623 9.53677e-007 2.86102e-006 0.854174 5.44225 9.50423 4.84413 -3.22854 3.65557 97.8453 -12.6515 -140.791 8.51613 -1.90735e-006 -3.8147e-006 -36.4159 0.000784305 -24.8415 10.1924 -3.8147e-006 -1.90735e-006 29.9213 -3.07533 -22.3845 14.4623 -4.76838e-006 -7.10543e-015 -0.500338 -1.51342 9.11752 14.5949 1.43855 0.585067 44.8404 2.45867 8.12559 -4.01858 0.435287 -3.45377 -105.548 3.32711 -174.458 3.92618 -4.76838e-007 -2.66454e-015 -78.4645 2.13326e-006 9.78817e-006 6.1232 -1.42109e-014 4.76837e-007 109.944 -3.03072e-006 -9.54805e-006 9.94776 3.81472e-006 -8.88179e-016 -73.8328 17.3505 5.36648 0.881233 -0.111043 0.0157101 168.347 -4.44295 -178.987 2.32136 -3.81473e-006 -0.00069809 43.7973 0.0238153 0.020355 1.63293 7.6295e-006 0 -102.596 -0.000844826 -0.00017666 1.72129 3.55279e-015 1.77636e-015 -2.09249e-007 3.39897e-007 -1.05492e-007 0.994616 0.967012 -1.09461 26.8367 -25.5653 10.4414 2.20203 9.53685e-007 1.90735e-006 39.353 -0.04891 -0.0407893 1.84924 3.81475e-006 0.000741958 -35.2936 -0.00112682 -0.00761366 1.70976 4.76846e-007 3.55271e-015 -1.37004e-007 1.82898e-006 -2.45187e-007 1.37489 1.34013 -0.0717066 31.8743 2.28819 -1.42172 2.26123 -4.76843e-007 4.76837e-007 30.45 7.33616e-006 -4.31462e-006 2.22214 1.90737e-006 -3.55271e-015 -38.4777 0.0186765 -0.0144929 1.61867 1.90738e-006 -4.76837e-007 5.14991e-007 1.11369e-005 1.05544e-007 1.40716 0.687999 0.883418 41.6315 24.9466 -20.5517 2.26829 9.53686e-007 3.8147e-006 28.7824 -0.0102384 -0.0146871 2.09769 3.81475e-006 1.42108e-014 -61.0172 -0.00269028 -0.0019349 1.53753 1.90739e-006 -1.06581e-014 7.33681e-007 4.6044e-006 9.7209e-008 -4.01857 0.435338 3.45377 -131.514 -0.423459 177.074 3.92615 3.8147e-006 -2.98023e-008 -93.2322 1.73053e-005 8.85054e-007 6.12318 -1.52588e-005 -2.68221e-007 100.726 -1.89543e-006 -9.87948e-006 9.94774 -7.10547e-015 -4.47035e-008 -71.3892 -14.5357 -5.35008 0.881234 -0.110951 -0.0158548 156.082 4.58626 179.938 2.32137 -1.4211e-014 0 43.9556 -0.00571503 0.00551117 1.63293 -1.42111e-014 -4.76837e-007 -43.5327 0.00222876 -0.00800448 1.7213 -3.81477e-006 -4.76837e-007 179.961 -0.00561136 0.00135229 0.994747 0.967282 1.09428 35.8042 23.7813 -14.1931 2.20201 -6.21732e-015 -9.53674e-007 39.4459 1.97e-006 9.59423e-006 1.84923 -3.81475e-006 5.32907e-015 -72.6411 -0.000416276 0.000132524 1.70977 -3.81478e-006 8.88178e-015 179.961 -0.000192494 -0.00263496 1.37479 1.34028 0.0712419 40.3258 -2.0544 1.74185 2.26123 1.77638e-015 0 30.7473 -3.75611e-006 1.4782e-006 2.22213 3.81475e-006 0 -38.5053 -0.00302673 0.00378118 1.61866 2.66458e-015 3.55271e-015 -179.961 -0.00156655 -0.00208712 1.40693 0.687998 -0.883786 50.2045 -21.7173 23.9519 2.26828 -1.90737e-006 -3.55271e-015 28.8402 4.30252e-006 -2.4556e-006 2.09769 -3.81475e-006 -1.90735e-006 -61.0234 -0.000345214 0.000169321 1.53754 -3.5528e-015 -1.90735e-006 -179.96 -0.000620667 -0.00180086 4.90809 -0.00402069 1.73472e-018 22.4808 -4.9931 0.00297495 5.56491 -1.2835 -4.76837e-007 16.0161 -3.52496 4.52601 2.793 -0.00221253 -9.53674e-007 9.58281 0.908101 -0.387585 2.79274 -1.14441e-005 1.90735e-006 57.4146 -22.457 11.5408 4.19086 0.0665913 1.17357e-010 -176.703 -0.050705 180 6.95114 -1.90735e-006 7.10543e-015 -3.92554e-007 1.45964e-006 8.31059e-007 
